<svg width="38" height="28" viewBox="0 0 38 28" fill="none" xmlns="http://www.w3.org/2000/svg">
<path d="M31.0706 11.6667C31.0706 10.9667 31.2941 10.2667 31.2941 9.33333C31.2941 4.2 27.2706 0 22.3529 0C18.7765 0 15.8706 2.1 14.3059 5.13333C13.8588 4.9 12.9647 4.66667 12.2941 4.66667C9.16471 4.66667 6.70588 7.23333 6.70588 10.5C6.70588 10.9667 6.70588 11.4333 6.92941 11.6667C2.90588 12.3667 0 15.6333 0 19.8333C0 24.2667 3.57647 28 7.82353 28H30.1765C34.4235 28 38 24.2667 38 19.8333C38 15.6333 35.0941 12.1333 31.0706 11.6667Z" fill="white"/>
</svg>
